# xmcd
#
# Track frame offsets:
#	150
#	17623
#	38717
#	61385
#	83460
#	103717
#	118523
#	136346
#	156381
#
# Disc length: 2389 seconds
#
# Revision: 1
# Processed by: cddbd v1.5.2PL0 Copyright (c) Steve Scherf et al.
# Submitted via: audiograbber 1.83.01
#
DISCID=69095309
DTITLE=Detroit Slim and City Heat - Aces Kings and Fifi Queens
DYEAR=2002
DGENRE=Blues
TTITLE0=My Baby Lives in Detroit
TTITLE1=You Been Warned
TTITLE2=Admiral Fells Blues
TTITLE3=Heat It Up
TTITLE4=Charlie the Crab
TTITLE5=Last Call
TTITLE6=Kitch Kotch Forum
TTITLE7=Your Bones
TTITLE8=Babys Got a Case
EXTD=
EXTT0=
EXTT1=
EXTT2=
EXTT3=
EXTT4=
EXTT5=
EXTT6=
EXTT7=
EXTT8=
PLAYORDER=
